<svg xmlns="http://www.w3.org/2000/svg">
    <symbol id="en" viewBox="0 0 24 36" fill="none"><path d="M19.4743 31.3712V21.4762H24V36H0V21.6439H4.52571V31.3712H9.63428V22.4825H14.0915V31.3712H19.4743ZM0 4.62882V0H24V3.52193L9.32571 13.5846H24V18.2134H0V14.6915L14.6401 4.62882H0Z" fill="currentColor"/></symbol>
    <symbol id="name" viewBox="0 0 196 85" fill="none"><path d="M24.3797 35L22.3915 29.0353H9.18381L7.19556 35H0.142018L11.7401 1.86254H19.8351L31.4806 35H24.3797ZM11.2667 22.9285H20.3559L15.8113 9.38948L11.2667 22.9285ZM34.4141 35V0.442364H40.5209V35H34.4141ZM51.2702 25.6742C52.0908 28.6408 54.3157 30.1241 57.9451 30.1241C60.2805 30.1241 62.0478 29.3351 63.2471 27.7571L68.1703 30.5975C65.8349 33.9743 62.395 35.6627 57.8504 35.6627C53.937 35.6627 50.7968 34.4793 48.4299 32.1123C46.0629 29.7453 44.8794 26.763 44.8794 23.1652C44.8794 19.599 46.0471 16.6324 48.3825 14.2654C50.7179 11.8669 53.7161 10.6676 57.377 10.6676C60.8485 10.6676 63.7047 11.8669 65.9454 14.2654C68.2177 16.6639 69.3538 19.6305 69.3538 23.1652C69.3538 23.9542 69.2749 24.7905 69.1171 25.6742H51.2702ZM51.1756 20.9402H63.2471C62.8999 19.3307 62.174 18.1315 61.0695 17.3425C59.9964 16.5535 58.7656 16.159 57.377 16.159C55.7359 16.159 54.3788 16.585 53.3058 17.4371C52.2328 18.2577 51.5227 19.4254 51.1756 20.9402ZM94.0997 35H87.0461L81.9335 27.8044L76.7735 35H69.72L78.383 22.9285L70.0987 11.3304H77.1522L81.9335 18.0052L86.7147 11.3304H93.7209L85.4366 22.8812L94.0997 35ZM113.472 11.3304H119.579V35H113.472V32.207C111.642 34.5108 109.07 35.6627 105.756 35.6627C102.6 35.6627 99.8861 34.4635 97.6139 32.065C95.3731 29.6349 94.2528 26.6683 94.2528 23.1652C94.2528 19.6621 95.3731 16.7113 97.6139 14.3128C99.8861 11.8827 102.6 10.6676 105.756 10.6676C109.07 10.6676 111.642 11.8196 113.472 14.1234V11.3304ZM102.206 27.9938C103.437 29.2246 104.999 29.84 106.892 29.84C108.786 29.84 110.348 29.2246 111.579 27.9938C112.841 26.7314 113.472 25.1219 113.472 23.1652C113.472 21.2085 112.841 19.6148 111.579 18.3839C110.348 17.1216 108.786 16.4904 106.892 16.4904C104.999 16.4904 103.437 17.1216 102.206 18.3839C100.975 19.6148 100.36 21.2085 100.36 23.1652C100.36 25.1219 100.975 26.7314 102.206 27.9938ZM138.277 10.6676C140.865 10.6676 142.995 11.5355 144.668 13.2713C146.372 15.0071 147.224 17.4056 147.224 20.4669V35H141.117V21.2243C141.117 19.6463 140.691 18.447 139.839 17.6265C138.987 16.7744 137.851 16.3483 136.431 16.3483C134.853 16.3483 133.591 16.8375 132.644 17.8159C131.697 18.7942 131.224 20.2617 131.224 22.2184V35H125.117V11.3304H131.224V13.9814C132.707 11.7722 135.058 10.6676 138.277 10.6676ZM170.38 1.86254H176.487V35H170.38V32.207C168.581 34.5108 166.025 35.6627 162.711 35.6627C159.524 35.6627 156.794 34.4635 154.522 32.065C152.281 29.6349 151.16 26.6683 151.16 23.1652C151.16 19.6621 152.281 16.7113 154.522 14.3128C156.794 11.8827 159.524 10.6676 162.711 10.6676C166.025 10.6676 168.581 11.8196 170.38 14.1234V1.86254ZM159.113 27.9938C160.376 29.2246 161.954 29.84 163.847 29.84C165.741 29.84 167.303 29.2246 168.534 27.9938C169.765 26.7314 170.38 25.1219 170.38 23.1652C170.38 21.2085 169.765 19.6148 168.534 18.3839C167.303 17.1216 165.741 16.4904 163.847 16.4904C161.954 16.4904 160.376 17.1216 159.113 18.3839C157.883 19.6148 157.267 21.2085 157.267 23.1652C157.267 25.1219 157.883 26.7314 159.113 27.9938ZM188.179 15.4016C188.747 13.8867 189.678 12.7506 190.972 11.9931C192.297 11.2357 193.765 10.857 195.374 10.857V17.6738C193.512 17.4529 191.839 17.8316 190.356 18.81C188.904 19.7883 188.179 21.4136 188.179 23.6859V35H182.072V11.3304H188.179V15.4016ZM22.2494 41.8625H28.7823V75H23.8116L9.60986 54.7388V75H3.07705V41.8625H8.04767L22.2494 62.0764V41.8625ZM52.6342 51.3304H58.741V75H52.6342V72.207C50.8037 74.5108 48.2316 75.6627 44.9179 75.6627C41.762 75.6627 39.0478 74.4635 36.7756 72.065C34.5348 69.6349 33.4145 66.6683 33.4145 63.1652C33.4145 59.6621 34.5348 56.7113 36.7756 54.3128C39.0478 51.8827 41.762 50.6676 44.9179 50.6676C48.2316 50.6676 50.8037 51.8196 52.6342 54.1234V51.3304ZM41.3675 67.9938C42.5983 69.2246 44.1605 69.84 46.054 69.84C47.9476 69.84 49.5098 69.2246 50.7406 67.9938C52.003 66.7314 52.6342 65.1219 52.6342 63.1652C52.6342 61.2085 52.003 59.6148 50.7406 58.3839C49.5098 57.1216 47.9476 56.4904 46.054 56.4904C44.1605 56.4904 42.5983 57.1216 41.3675 58.3839C40.1366 59.6148 39.5212 61.2085 39.5212 63.1652C39.5212 65.1219 40.1366 66.7314 41.3675 67.9938ZM77.8176 57.2005H72.4682V67.047C72.4682 67.8676 72.6734 68.4672 73.0836 68.8459C73.4939 69.2246 74.0935 69.4455 74.8825 69.5086C75.6715 69.5402 76.6499 69.5244 77.8176 69.4613V75C73.6201 75.4734 70.6535 75.0789 68.9178 73.8165C67.2136 72.5541 66.3615 70.2976 66.3615 67.047V57.2005H62.2429V51.3304H66.3615V46.5491L72.4682 44.7029V51.3304H77.8176V57.2005ZM101.55 72.065C99.12 74.4635 96.1534 75.6627 92.6503 75.6627C89.1472 75.6627 86.1806 74.4635 83.7505 72.065C81.352 69.6349 80.1527 66.6683 80.1527 63.1652C80.1527 59.6621 81.352 56.7113 83.7505 54.3128C86.1806 51.8827 89.1472 50.6676 92.6503 50.6676C96.1534 50.6676 99.12 51.8827 101.55 54.3128C103.98 56.7113 105.195 59.6621 105.195 63.1652C105.195 66.6683 103.98 69.6349 101.55 72.065ZM88.0584 67.8518C89.2892 69.0826 90.8198 69.698 92.6503 69.698C94.4807 69.698 96.0114 69.0826 97.2422 67.8518C98.473 66.621 99.0884 65.0588 99.0884 63.1652C99.0884 61.2716 98.473 59.7094 97.2422 58.4786C96.0114 57.2478 94.4807 56.6324 92.6503 56.6324C90.8198 56.6324 89.2892 57.2478 88.0584 58.4786C86.8591 59.7094 86.2595 61.2716 86.2595 63.1652C86.2595 65.0588 86.8591 66.621 88.0584 67.8518ZM120.758 75.6627C117.192 75.6627 114.209 74.4635 111.811 72.065C109.444 69.6664 108.26 66.6999 108.26 63.1652C108.26 59.6305 109.444 56.6639 111.811 54.2654C114.209 51.8669 117.192 50.6676 120.758 50.6676C123.062 50.6676 125.16 51.2199 127.054 52.3245C128.948 53.4291 130.384 54.9124 131.362 56.7744L126.107 59.8514C125.634 58.8731 124.908 58.0999 123.93 57.5318C122.983 56.9638 121.91 56.6797 120.711 56.6797C118.88 56.6797 117.365 57.2951 116.166 58.5259C114.967 59.7252 114.367 61.2716 114.367 63.1652C114.367 65.0272 114.967 66.5736 116.166 67.8044C117.365 69.0037 118.88 69.6033 120.711 69.6033C121.941 69.6033 123.03 69.3351 123.977 68.7986C124.955 68.2305 125.681 67.4573 126.155 66.4789L131.457 69.5086C130.415 71.3707 128.948 72.8697 127.054 74.0059C125.16 75.1105 123.062 75.6627 120.758 75.6627ZM147.847 50.6676C150.435 50.6676 152.565 51.5355 154.237 53.2713C155.942 55.0071 156.794 57.4056 156.794 60.4669V75H150.687V61.2243C150.687 59.6463 150.261 58.447 149.409 57.6265C148.557 56.7744 147.421 56.3483 146 56.3483C144.422 56.3483 143.16 56.8375 142.213 57.8159C141.267 58.7942 140.793 60.2617 140.793 62.2184V75H134.686V41.8625H140.793V53.9814C142.276 51.7722 144.628 50.6676 147.847 50.6676ZM165.038 48.49C164.028 48.49 163.144 48.1271 162.387 47.4012C161.661 46.6438 161.298 45.7601 161.298 44.7502C161.298 43.7403 161.661 42.8567 162.387 42.0992C163.144 41.3418 164.028 40.9631 165.038 40.9631C166.079 40.9631 166.963 41.3418 167.689 42.0992C168.446 42.8567 168.825 43.7403 168.825 44.7502C168.825 45.7601 168.446 46.6438 167.689 47.4012C166.963 48.1271 166.079 48.49 165.038 48.49ZM162.008 75V51.3304H168.115V75H162.008ZM189.137 51.3304H195.67L187.054 75C185.823 78.4084 184.182 80.8701 182.131 82.3849C180.111 83.9313 177.586 84.6256 174.556 84.4678V78.7871C176.197 78.8187 177.491 78.4715 178.438 77.7457C179.417 77.0198 180.19 75.8521 180.758 74.2426L171.053 51.3304H177.728L183.882 67.2364L189.137 51.3304Z" fill="currentColor"/></symbol>
    <symbol id="ru" viewBox="0 0 24 36" fill="none"><path d="M23.5294 23.8564L15.3614 28.3154V31.6359H23.5294V36H0V27.1453C0 25.1002 0.761908 23.3609 2.2857 21.9273C3.80952 20.4937 5.64703 19.7769 7.79829 19.7769C9.25488 19.7769 10.6105 20.1668 11.8656 20.947C13.0979 21.7271 14.028 22.76 14.6555 24.0461L23.5294 19.1444V23.8564ZM4.33611 31.6359H11.2941V27.1453C11.2941 26.323 10.958 25.6168 10.2857 25.0265C9.59101 24.4361 8.76188 24.141 7.79829 24.141C6.83472 24.141 6.01678 24.4361 5.34452 25.0265C4.67225 25.6168 4.33611 26.323 4.33611 27.1453V31.6359ZM24 8.47525C24 10.9419 23.2605 12.9659 21.7815 14.5471C20.3025 16.1283 18.3193 16.9189 15.8319 16.9189H0V12.5864H15.4622C16.6945 12.5864 17.6693 12.2597 18.3866 11.606C19.1036 10.9314 19.4622 9.88785 19.4622 8.47525C19.4622 7.06264 19.1036 6.02972 18.3866 5.37609C17.6693 4.70151 16.6945 4.36412 15.4622 4.36412H0V0H15.8319C18.3193 0 20.3025 0.790605 21.7815 2.37181C23.2605 3.95301 24 5.98742 24 8.47525Z" fill="currentColor"/></symbol>
    <symbol id="css" viewBox="0 0 64 64" fill="none"><path fill="#264DE4" d="M13.751 58.86 9.625 12.578h45.342l-4.131 46.274L32.268 64l-18.517-5.14Z"/><path fill="#2965F1" d="m47.3 55.906 3.53-39.544H32.296v43.703l15.004-4.16Z"/><path fill="#EBEBEB" d="m19.085 33.527.508 5.676h12.703v-5.676H19.085ZM18.578 27.715h13.718v-5.677H18.062l.516 5.677ZM32.27 54.182l.026-.007v-5.906l-.025.007-6.322-1.707-.404-4.527h-5.698l.795 8.912 11.628 3.228Z"/><path fill="#000" d="M20.296 0h6.875v2.875h-4V5.75h4v2.875h-6.875V0ZM28.546 0h6.875v2.5h-4V3h4v5.75h-6.875V6.125h4v-.5h-4V0ZM36.796 0h6.875v2.5h-4V3h4v5.75h-6.875V6.125h4v-.5h-4V0Z"/><path fill="#fff" d="M46.495 22.038H32.276v5.677h7.999l-.517 5.812h-7.482v5.676h6.99l-.659 7.362-6.33 1.709v5.905l11.636-3.225.085-.959 1.334-14.944.139-1.524 1.025-11.489Z"/></symbol>
    <symbol id="figma" viewBox="0 0 64 64" fill="none"><path fill="#0ACF83" d="M21.342 64a10.667 10.667 0 0 0 10.666-10.667V42.667H21.342a10.667 10.667 0 1 0 0 21.333Z"/><path fill="#A259FF" d="M10.675 32a10.667 10.667 0 0 1 10.667-10.667h10.666v21.334H21.342A10.667 10.667 0 0 1 10.675 32Z"/><path fill="#F24E1E" d="M10.675 10.667A10.667 10.667 0 0 1 21.333 0H32v21.333H21.342a10.667 10.667 0 0 1-10.667-10.666Z"/><path fill="#FF7262" d="M32.008 0h10.667a10.667 10.667 0 0 1 0 21.333H32.008V0Z"/><path fill="#1ABCFE" d="M53.342 32a10.667 10.667 0 1 1-21.334 0 10.667 10.667 0 0 1 21.334 0Z"/></symbol>
    <symbol id="html" viewBox="0 0 64 64" fill="none"><path fill="#E44D26" d="m54.614 12.546-4.12 46.158-18.522 5.134-18.47-5.127-4.116-46.165h45.228Z"/><path fill="#F16529" d="m32 59.914 14.966-4.15 3.52-39.444H32v43.594Z"/><path fill="#EBEBEB" d="M23.99 27.644H32v-5.661H17.802l.136 1.518 1.392 15.603H32v-5.662h-7.492l-.518-5.798Zm1.276 14.291h-5.683l.793 8.89 11.598 3.22.026-.007v-5.89l-.025.006-6.306-1.703-.403-4.516Z"/><path fill="#000" d="M13.594 0h2.878v2.843h2.632V0h2.877v8.609h-2.877V5.726h-2.632v2.883h-2.878V0Zm12.17 2.855h-2.532V0h7.945v2.855h-2.534v5.754h-2.878V2.855ZM32.439 0h3l1.846 3.025L39.127 0h3.002v8.609h-2.866V4.342l-1.98 3.06h-.049l-1.98-3.06v4.267h-2.816V0ZM43.56 0h2.878v5.763h4.046V8.61h-6.924V0Z"/><path fill="#fff" d="M31.98 39.104h6.973l-.658 7.343-6.315 1.705v5.89l11.608-3.216.085-.957 1.33-14.906.139-1.52H31.98v5.661Zm0-11.473v.013h13.677l.113-1.272.258-2.87.136-1.52H31.98v5.649Z"/></symbol>
    <symbol id="javascript" viewBox="0 0 64 64" fill="none"><g clip-path="url(#a)"><path fill="#F0DB4F" d="M0 0h64v64H0V0Z"/><path fill="#323330" d="M58.762 48.736c-.468-2.92-2.373-5.372-8.012-7.66-1.96-.9-4.143-1.544-4.794-3.029-.231-.864-.262-1.35-.116-1.874.42-1.697 2.446-2.226 4.052-1.74 1.034.347 2.014 1.144 2.604 2.416 2.762-1.789 2.756-1.777 4.684-3.006-.706-1.095-1.083-1.6-1.545-2.068-1.66-1.855-3.924-2.81-7.544-2.738-.626.08-1.259.165-1.886.244-1.806.456-3.528 1.405-4.538 2.677-3.03 3.437-2.166 9.453 1.52 11.93 3.633 2.725 8.968 3.346 9.65 5.895.663 3.12-2.294 4.13-5.232 3.771-2.166-.45-3.37-1.55-4.673-3.552-2.397 1.387-2.397 1.387-4.86 2.804.584 1.278 1.198 1.856 2.177 2.963 4.636 4.703 16.238 4.471 18.318-2.646.086-.244.645-1.874.195-4.387Zm-23.97-19.321h-5.986c0 5.17-.024 10.305-.024 15.476 0 3.291.17 6.309-.365 7.234-.876 1.819-3.146 1.594-4.18 1.24-1.052-.516-1.587-1.253-2.208-2.293-.17-.298-.298-.529-.34-.547-1.625.991-3.243 1.989-4.868 2.98.81 1.662 2.002 3.103 3.529 4.04 2.281 1.369 5.347 1.789 8.553 1.053 2.087-.609 3.888-1.868 4.83-3.784 1.364-2.513 1.072-5.555 1.06-8.919.03-5.487 0-10.975 0-16.48Z"/></g><defs><clipPath><path fill="#fff" d="M0 0h64v64H0z"/></clipPath></defs></symbol>
    <symbol id="mysql" viewBox="0 0 64 34" fill="none"><g fill-rule="evenodd" clip-path="url(#a)" clip-rule="evenodd"><path fill="#00678C" d="M0 31.01h2.117v-8.416l3.306 7.338c.375.882.913 1.209 1.955 1.209 1.041 0 1.547-.327 1.934-1.209l3.29-7.337v8.415h2.133v-8.416c0-.816-.325-1.21-1.01-1.422-1.612-.49-2.687-.065-3.175 1.03l-3.24 7.255-3.128-7.256C3.71 21.107 2.62 20.683.99 21.172c-.667.213-.993.605-.993 1.422v8.416H0Zm16.498-6.847h2.133v4.625c-.016.261.082.85 1.241.866.602.016 4.593 0 4.625 0V24.13h2.133v7.567c0 1.863-2.3 2.27-3.37 2.287h-6.71v-1.42h6.726c1.368-.148 1.206-.834 1.206-1.063v-.556H19.97c-2.1-.016-3.453-.948-3.469-2.01v-4.772h-.003Zm45.762-5.36c-1.302-.033-2.313.098-3.16.458-.243.099-.635.099-.667.409.13.13.146.342.26.522.196.328.538.768.847.997.343.262.685.523 1.042.752.636.392 1.352.62 1.97 1.013.36.229.717.523 1.076.768.182.131.293.344.52.425v-.05c-.113-.146-.146-.358-.26-.522-.163-.163-.325-.31-.488-.474a7.718 7.718 0 0 0-1.694-1.65c-.521-.36-1.66-.85-1.873-1.454l-.032-.033c.358-.033.781-.164 1.124-.262.554-.147 1.058-.115 1.628-.261.26-.066.52-.148.782-.23v-.146c-.293-.294-.505-.686-.814-.964a21.716 21.716 0 0 0-2.688-2.01c-.504-.327-1.156-.54-1.693-.817-.196-.098-.522-.147-.635-.31-.294-.36-.457-.834-.668-1.259a41.328 41.328 0 0 1-1.336-2.843c-.293-.638-.472-1.275-.83-1.863-1.677-2.778-3.502-4.461-6.303-6.112-.602-.343-1.319-.491-2.08-.67l-1.222-.066c-.26-.115-.52-.425-.749-.572-.928-.589-3.322-1.863-4.007-.18-.44 1.062.652 2.108 1.022 2.647.278.376.636.801.831 1.226.11.278.147.572.26.866.261.72.505 1.52.847 2.19.183.344.375.704.603 1.014.13.18.358.262.407.556-.228.327-.244.816-.374 1.226-.587 1.846-.359 4.134.472 5.49.26.408.876 1.308 1.71.964.733-.294.57-1.226.781-2.043.05-.196.017-.326.114-.457v.033l.668 1.356c.505.8 1.384 1.634 2.117 2.19.39.294.7.801 1.188.98v-.049h-.032c-.097-.146-.244-.212-.374-.326a7.949 7.949 0 0 1-.847-.981c-.684-.915-1.286-1.928-1.824-2.974-.26-.507-.489-1.062-.7-1.569-.099-.196-.099-.49-.261-.588-.245.359-.602.67-.782 1.111-.31.703-.342 1.569-.456 2.468-.065.016-.036 0-.065.033-.52-.13-.7-.67-.896-1.128-.488-1.16-.57-3.023-.147-4.363.114-.343.603-1.422.408-1.749-.098-.31-.423-.49-.603-.735a6.606 6.606 0 0 1-.586-1.046c-.39-.916-.585-1.928-1.01-2.844-.195-.425-.537-.866-.814-1.258-.31-.441-.65-.752-.895-1.274-.082-.18-.196-.474-.065-.67.032-.131.098-.18.227-.213.212-.18.815.049 1.027.146.602.246 1.107.474 1.611.817.229.163.473.474.766.556h.343c.52.114 1.107.033 1.595.18.863.278 1.644.686 2.345 1.128a14.477 14.477 0 0 1 5.081 5.589c.195.376.277.719.456 1.111.343.801.766 1.618 1.107 2.403.343.768.668 1.553 1.157 2.19.244.344 1.221.523 1.66.703.327.146.83.278 1.125.458.553.343 1.107.735 1.628 1.111.26.196 1.075.604 1.123.93l.002-.001ZM45.652 4.602a2.579 2.579 0 0 0-.667.081v.033h.032c.13.262.358.442.521.67l.375.785.032-.033c.228-.163.343-.425.343-.817-.098-.114-.114-.228-.196-.343-.097-.163-.31-.245-.44-.376Z"/><path fill="#CE8B2C" d="M28.256 31.01h6.123c.717 0 1.401-.146 1.955-.408.928-.425 1.368-.996 1.368-1.748v-1.569c0-.604-.505-1.177-1.514-1.569a5.314 5.314 0 0 0-1.808-.31h-2.574c-.863 0-1.27-.262-1.384-.834-.016-.065-.016-.13-.016-.195v-.965c0-.05 0-.114.016-.18.114-.44.342-.555 1.095-.637h6.27v-1.422h-5.96c-.864 0-1.32.05-1.727.18-1.254.392-1.808 1.013-1.808 2.108v1.242c0 .964 1.075 1.782 2.899 1.978.195.016.407.016.618.016h2.2c.08 0 .162 0 .227.017.668.065.96.18 1.156.424.13.13.163.245.163.392v1.242c0 .147-.098.344-.293.507-.195.163-.505.277-.913.294-.08 0-.13.016-.211.016h-5.882v1.421Zm22.702-2.467c0 1.454 1.095 2.271 3.274 2.435.211.017.407.032.618.032h5.538v-1.42h-5.586c-1.239 0-1.71-.311-1.71-1.063v-7.354h-2.138v7.37h.004Zm-11.905.065v-5.066c0-1.29.912-2.076 2.688-2.32.195-.017.39-.033.569-.033h4.038c.212 0 .392.016.603.033 1.775.244 2.67 1.029 2.67 2.32v5.066c0 1.046-.373 1.602-1.254 1.978l2.085 1.895h-2.459L46.3 30.945l-1.71.098h-2.28a4.972 4.972 0 0 1-1.237-.163c-1.351-.376-2.019-1.095-2.019-2.272Zm2.296-.114c0 .066.036.13.05.213.113.588.666.915 1.513.915h1.922l-1.758-1.602h2.458l1.547 1.406c.294-.164.473-.393.538-.687.016-.065.016-.146.016-.212v-4.854c0-.065 0-.13-.016-.196-.114-.555-.667-.866-1.498-.866h-3.209c-.944 0-1.563.409-1.563 1.062v4.822Z"/></g><defs><clipPath><path fill="#fff" d="M0 0h64v34H0z"/></clipPath></defs></symbol>
    <symbol id="photoshop" viewBox="0 0 64 64" fill="none"><path fill="url(#a)" d="M2.662 4.378h58.56v56.96H2.662V4.378Z"/><path fill="#31C5F0" d="M2.662 4.378h58.56v56.96H2.662V4.378ZM0 64h63.872V1.715H0V64Zm43.072-36.723c-2.1 0-2.816 1.062-2.816 1.945 0 .96.474 1.626 3.302 3.085 4.173 2.023 5.479 3.968 5.479 6.81 0 4.262-3.251 6.553-7.642 6.553-2.317 0-4.313-.473-5.453-1.139-.192-.077-.217-.217-.217-.422v-3.93c0-.269.128-.345.32-.217a9.922 9.922 0 0 0 5.35 1.574c2.1 0 2.983-.883 2.983-2.074 0-.96-.615-1.804-3.303-3.2-3.776-1.804-5.35-3.635-5.35-6.707 0-3.43 2.688-6.285 7.347-6.285 2.291 0 3.891.346 4.762.743.217.128.268.345.268.537v3.648c0 .218-.128.346-.396.27-1.178-.743-2.906-1.191-4.634-1.191Zm-22.886 3.161c.614.052 1.088.052 2.15.052 3.11 0 6.042-1.088 6.042-5.325 0-3.38-2.1-5.082-5.645-5.082-1.063 0-2.074.051-2.56.077l.013 10.278Zm-4.75-14.13c0-.193.372-.32.59-.32 1.702-.078 4.236-.129 6.86-.129 7.373 0 10.253 4.045 10.253 9.203 0 6.759-4.902 9.664-10.918 9.664-1.011 0-1.357-.05-2.074-.05V44.89c0 .217-.077.32-.32.32h-4.07c-.218 0-.32-.077-.32-.32V16.307Z"/><defs><radialGradient cx="0" cy="0" r="1" gradientTransform="matrix(44.499 0 0 43.0832 21.963 17.157)" gradientUnits="userSpaceOnUse"><stop stop-color="#34364E" stop-opacity=".98"/><stop offset="1" stop-color="#0C0824"/></radialGradient></defs></symbol>
    <symbol id="php" viewBox="0 0 64 34" fill="none"><g clip-path="url(#a)"><mask width="64" height="42" x="0" y="-5" maskUnits="userSpaceOnUse" style="mask-type:luminance"><path fill="#fff" d="M64-4.857H0v41.633h64V-4.858Z"/></mask><g mask="url(#b)"><mask id="c" width="64" height="34" x="0" y="0" maskUnits="userSpaceOnUse" style="mask-type:luminance"><path fill="#fff" d="M.622 16.893c0 9.065 14.16 16.413 31.625 16.413s31.625-7.348 31.625-16.412C63.872 7.829 49.712.48 32.247.48 14.78.481.622 7.83.622 16.893Z"/></mask><g mask="url(#c)"><path fill="url(#d)" d="M.622 16.893c0 9.065 14.16 16.413 31.625 16.413s31.625-7.348 31.625-16.412C63.872 7.829 49.712.48 32.247.48 14.78.481.622 7.83.622 16.893Z"/></g><mask id="e" width="67" height="38" x="-1" y="-2" maskUnits="userSpaceOnUse" style="mask-type:luminance"><path fill="#fff" d="M-.696-1.388H65.19v36.563H-.696V-1.388Z"/></mask><g mask="url(#e)"><path fill="#777BB3" d="M32.247 32.087c16.784 0 30.39-6.802 30.39-15.194 0-8.39-13.606-15.193-30.39-15.193S1.857 8.502 1.857 16.894c0 8.39 13.606 15.193 30.39 15.193Z"/></g><mask id="f" width="67" height="38" x="-1" y="-2" maskUnits="userSpaceOnUse" style="mask-type:luminance"><path fill="#fff" d="M-.696-1.388H65.19v36.563H-.696V-1.388Z"/></mask><g mask="url(#f)"><path fill="#000" d="M17.804 18.777c1.38 0 2.41-.25 3.062-.746.645-.49 1.09-1.338 1.324-2.522.218-1.107.135-1.88-.247-2.296-.39-.426-1.232-.642-2.504-.642h-2.205l-1.223 6.206h1.793Zm-7.213 7.646a.344.344 0 0 1-.333-.256.334.334 0 0 1-.004-.148l3.24-16.447a.346.346 0 0 1 .337-.274h6.984c2.194 0 3.828.587 4.855 1.748 1.032 1.166 1.351 2.795.947 4.843a7.671 7.671 0 0 1-.84 2.303 7.735 7.735 0 0 1-1.545 1.91 6.798 6.798 0 0 1-2.543 1.505c-.916.294-2.091.443-3.494.443h-2.828l-.808 4.099a.339.339 0 0 1-.336.274H10.59Z"/><path fill="#fff" d="M17.517 12.91h1.922c1.535 0 2.069.332 2.25.53.3.328.357 1.022.164 2.005-.217 1.1-.62 1.88-1.196 2.318-.59.448-1.55.676-2.853.676h-1.377l1.09-5.53Zm3.298-3.95H13.83a.693.693 0 0 0-.436.154.675.675 0 0 0-.238.393l-3.24 16.448a.668.668 0 0 0 .144.56.684.684 0 0 0 .53.246h3.632c.159 0 .313-.054.436-.154a.675.675 0 0 0 .237-.394l.754-3.825h2.545c1.439 0 2.65-.154 3.6-.46a7.143 7.143 0 0 0 2.672-1.578 8.048 8.048 0 0 0 1.61-1.992c.41-.725.706-1.534.877-2.404.425-2.156.08-3.882-1.026-5.13-1.094-1.237-2.815-1.864-5.113-1.864Zm-5.22 10.156h2.21c1.463 0 2.554-.272 3.27-.817.717-.544 1.2-1.452 1.452-2.726.24-1.222.13-2.085-.328-2.587-.46-.503-1.38-.754-2.76-.754h-2.488l-1.356 6.884Zm5.22-9.48c2.1 0 3.633.545 4.597 1.632.963 1.088 1.253 2.607.869 4.557a7.301 7.301 0 0 1-.803 2.202A7.36 7.36 0 0 1 24 19.854a6.435 6.435 0 0 1-2.417 1.43c-.886.286-2.015.427-3.388.427h-3.11l-.862 4.373H10.59l3.24-16.447h6.984Z"/><path fill="#000" d="M34.944 22.05a.344.344 0 0 1-.264-.123.335.335 0 0 1-.072-.28l1.433-7.278c.136-.692.102-1.189-.095-1.399-.12-.128-.483-.343-1.556-.343h-2.597l-1.802 9.149a.345.345 0 0 1-.337.274h-3.603a.346.346 0 0 1-.265-.123.336.336 0 0 1-.072-.28l3.24-16.448a.337.337 0 0 1 .119-.196.346.346 0 0 1 .218-.078h3.603a.348.348 0 0 1 .265.124.337.337 0 0 1 .072.28l-.782 3.97h2.794c2.128 0 3.57.37 4.411 1.13.858.778 1.124 2.02.795 3.693l-1.508 7.654a.338.338 0 0 1-.118.197.346.346 0 0 1-.218.077h-3.66Z"/><path fill="#fff" d="M32.894 4.587h-3.603a.692.692 0 0 0-.436.154.675.675 0 0 0-.237.394l-3.24 16.447a.669.669 0 0 0 .143.56.685.685 0 0 0 .53.246h3.603c.16 0 .314-.054.437-.154a.675.675 0 0 0 .237-.394l1.748-8.874h2.314c1.07 0 1.296.225 1.305.235.065.069.15.388.01 1.104l-1.434 7.277a.669.669 0 0 0 .144.56.685.685 0 0 0 .53.246h3.66c.16 0 .314-.054.437-.154a.675.675 0 0 0 .237-.394l1.507-7.653c.354-1.797.051-3.145-.899-4.006-.907-.822-2.426-1.222-4.644-1.222h-2.377l.703-3.566a.669.669 0 0 0-.145-.56.684.684 0 0 0-.53-.246Zm0 .677-.86 4.373h3.21c2.019 0 3.412.347 4.179 1.042.767.695.996 1.821.69 3.378l-1.508 7.654h-3.66l1.433-7.277c.163-.828.103-1.393-.18-1.694-.283-.3-.886-.452-1.808-.452h-2.88l-1.856 9.423h-3.603l3.24-16.447h3.604Z"/><path fill="#000" d="M46.15 18.777c1.38 0 2.41-.25 3.062-.746.645-.49 1.09-1.338 1.324-2.522.218-1.107.135-1.88-.246-2.296-.39-.426-1.233-.642-2.505-.642H45.58l-1.223 6.206h1.793Zm-7.213 7.646a.344.344 0 0 1-.333-.256.336.336 0 0 1-.004-.148l3.24-16.447a.346.346 0 0 1 .337-.274h6.984c2.195 0 3.828.587 4.855 1.748 1.032 1.166 1.351 2.795.948 4.843a7.674 7.674 0 0 1-.84 2.303 7.733 7.733 0 0 1-1.546 1.91 6.798 6.798 0 0 1-2.543 1.505c-.915.294-2.09.443-3.494.443h-2.828l-.807 4.099a.339.339 0 0 1-.337.274h-3.632Z"/><path fill="#fff" d="M45.863 12.91h1.923c1.535 0 2.068.332 2.25.53.3.328.357 1.022.163 2.004-.217 1.1-.62 1.88-1.196 2.319-.59.448-1.55.676-2.852.676h-1.377l1.09-5.53Zm3.298-3.95h-6.984a.693.693 0 0 0-.436.154.676.676 0 0 0-.237.393l-3.24 16.448a.67.67 0 0 0 .38.742.694.694 0 0 0 .293.064h3.632c.16 0 .313-.054.436-.154a.676.676 0 0 0 .238-.394l.753-3.825h2.545c1.44 0 2.65-.154 3.6-.46a7.144 7.144 0 0 0 2.672-1.578 8.07 8.07 0 0 0 1.61-1.992c.411-.725.706-1.534.878-2.404.425-2.156.08-3.882-1.026-5.13C53.18 9.586 51.459 8.96 49.16 8.96Zm-5.22 10.156h2.21c1.464 0 2.554-.272 3.27-.817.718-.544 1.201-1.452 1.452-2.726.24-1.222.131-2.085-.328-2.587-.46-.503-1.38-.754-2.759-.754h-2.488l-1.356 6.884Zm5.22-9.48c2.101 0 3.634.545 4.597 1.632.963 1.088 1.253 2.607.87 4.557a7.301 7.301 0 0 1-.803 2.202 7.359 7.359 0 0 1-1.478 1.827 6.434 6.434 0 0 1-2.418 1.43c-.886.286-2.015.427-3.388.427h-3.11l-.862 4.373h-3.632l3.24-16.447h6.984Z"/></g></g></g><defs><radialGradient id="d" cx="0" cy="0" r="1" gradientTransform="matrix(41.528 0 0 40.9699 19.61 6.251)" gradientUnits="userSpaceOnUse"><stop stop-color="#AEB2D5"/><stop offset=".3" stop-color="#AEB2D5"/><stop offset=".75" stop-color="#484C89"/><stop offset="1" stop-color="#484C89"/></radialGradient><clipPath id="a"><path fill="#fff" d="M0 0h64v34H0z"/></clipPath></defs></symbol>
    <symbol id="react" viewBox="0 0 64 60" fill="none"><path fill="#61DAFB" d="M64 30.007c0-4.373-5.31-8.517-13.45-11.087 1.879-8.556 1.044-15.364-2.635-17.544-.848-.511-1.84-.753-2.922-.753v3c.6 0 1.083.121 1.487.35 1.774 1.05 2.544 5.045 1.944 10.185a42.598 42.598 0 0 1-.665 3.955c-2.557-.646-5.349-1.143-8.284-1.466-1.761-2.49-3.587-4.75-5.427-6.727 4.253-4.077 8.245-6.31 10.958-6.31v-3c-3.587 0-8.284 2.636-13.032 7.21C27.225 3.274 22.529.664 18.942.664v3c2.7 0 6.705 2.22 10.958 6.27a63.162 63.162 0 0 0-5.388 6.714c-2.948.323-5.74.82-8.297 1.48-.3-1.346-.522-2.65-.678-3.902-.613-5.14.143-9.135 1.905-10.198.39-.242.9-.35 1.5-.35v-3c-1.096 0-2.087.242-2.949.753-3.665 2.18-4.487 8.974-2.595 17.504C5.283 21.517 0 25.648 0 30.007c0 4.372 5.31 8.516 13.45 11.086-1.879 8.557-1.044 15.365 2.635 17.544.848.511 1.84.754 2.935.754 3.587 0 8.284-2.637 13.032-7.212 4.749 4.548 9.445 7.158 13.032 7.158 1.096 0 2.088-.242 2.949-.754 3.665-2.18 4.487-8.974 2.596-17.503C58.717 38.51 64 34.366 64 30.007Zm-16.985-8.974a61.933 61.933 0 0 1-1.761 5.314 64.297 64.297 0 0 0-1.709-3.229 73.077 73.077 0 0 0-1.879-3.148c1.853.283 3.64.632 5.35 1.063ZM41.04 35.36a72.1 72.1 0 0 1-3.143 5.14c-1.944.175-3.914.27-5.897.27-1.97 0-3.94-.095-5.87-.257a74.504 74.504 0 0 1-3.157-5.112 70.858 70.858 0 0 1-2.714-5.355 71.01 71.01 0 0 1 2.7-5.368 72.078 72.078 0 0 1 3.145-5.14A65.832 65.832 0 0 1 32 19.27c1.97 0 3.94.095 5.87.256a74.552 74.552 0 0 1 3.157 5.113 70.841 70.841 0 0 1 2.714 5.354 76.204 76.204 0 0 1-2.7 5.369Zm4.214-1.749a58.91 58.91 0 0 1 1.8 5.355c-1.709.43-3.509.794-5.374 1.077a74.792 74.792 0 0 0 1.878-3.19 77.2 77.2 0 0 0 1.696-3.242ZM32.026 47.968a55.024 55.024 0 0 1-3.627-4.305 78.33 78.33 0 0 0 3.588.094c1.226 0 2.44-.027 3.627-.094a52.09 52.09 0 0 1-3.588 4.305Zm-9.706-7.925a57.27 57.27 0 0 1-5.348-1.062 61.864 61.864 0 0 1 1.761-5.315 64.338 64.338 0 0 0 1.709 3.23 89.64 89.64 0 0 0 1.878 3.148Zm9.64-27.998a55.002 55.002 0 0 1 3.627 4.306A78.327 78.327 0 0 0 32 16.257c-1.226 0-2.44.026-3.627.094a52.11 52.11 0 0 1 3.588-4.306Zm-9.653 7.925a74.753 74.753 0 0 0-3.574 6.418 58.911 58.911 0 0 1-1.8-5.355c1.709-.417 3.509-.78 5.374-1.063ZM10.501 36.815c-4.618-2.032-7.605-4.696-7.605-6.808 0-2.113 2.987-4.79 7.605-6.808 1.122-.498 2.349-.942 3.614-1.359a65.907 65.907 0 0 0 2.935 8.194 65.011 65.011 0 0 0-2.896 8.153 38.87 38.87 0 0 1-3.653-1.372ZM17.52 56.04c-1.774-1.05-2.544-5.046-1.944-10.185.143-1.265.378-2.597.665-3.956 2.557.646 5.349 1.144 8.284 1.467 1.761 2.489 3.588 4.749 5.427 6.727-4.253 4.076-8.245 6.31-10.958 6.31-.587-.014-1.083-.135-1.474-.364Zm30.943-10.252c.613 5.139-.143 9.135-1.904 10.198-.392.242-.9.35-1.5.35-2.701 0-6.706-2.22-10.959-6.27a63.163 63.163 0 0 0 5.388-6.714c2.948-.323 5.74-.82 8.297-1.48.3 1.36.535 2.664.678 3.916Zm5.023-8.974c-1.122.497-2.349.941-3.614 1.358a65.93 65.93 0 0 0-2.935-8.193 65.011 65.011 0 0 0 2.896-8.153c1.291.417 2.518.874 3.666 1.372 4.618 2.031 7.605 4.695 7.605 6.808-.013 2.112-3 4.79-7.618 6.808Z"/><path fill="#61DAFB" d="M31.987 36.155c3.293 0 5.962-2.752 5.962-6.148s-2.67-6.149-5.962-6.149c-3.293 0-5.962 2.753-5.962 6.149s2.67 6.148 5.962 6.148Z"/></symbol>
    <symbol id="sass" viewBox="0 0 64 48" fill="none"><g clip-path="url(#a)"><path fill="#CF649A" d="M55.075 27.575c-2.237.013-4.175.55-5.8 1.35-.6-1.187-1.2-2.225-1.3-3-.112-.9-.25-1.45-.112-2.525.137-1.075.762-2.6.762-2.725-.013-.113-.138-.663-1.425-.675-1.287-.012-2.4.25-2.525.587a14.356 14.356 0 0 0-.537 1.913c-.225 1.175-2.575 5.337-3.913 7.525-.437-.85-.812-1.6-.888-2.2-.112-.9-.25-1.45-.112-2.525s.763-2.6.763-2.725c-.013-.113-.138-.662-1.425-.675-1.288-.012-2.4.25-2.525.588-.125.337-.263 1.137-.538 1.912-.262.775-3.387 7.725-4.2 9.538a38.622 38.622 0 0 1-1.037 2.162c-.263.5-.013.038-.038.087l-.35.663v.013c-.175.312-.362.612-.45.612-.063 0-.188-.837.025-1.987.462-2.413 1.587-6.175 1.575-6.313 0-.062.212-.725-.725-1.062-.913-.338-1.237.225-1.313.225-.075 0-.137.2-.137.2s1.012-4.238-1.938-4.238c-1.85 0-4.4 2.013-5.662 3.85-.8.438-2.5 1.363-4.3 2.35-.688.375-1.4.775-2.075 1.138l-.137-.15C11.163 27.675 4.55 24.974 4.825 19.85c.1-1.863.75-6.775 12.7-12.725 9.788-4.875 17.625-3.537 18.988-.562 1.937 4.25-4.188 12.15-14.363 13.287-3.875.438-5.912-1.063-6.425-1.625-.537-.588-.612-.613-.812-.5-.325.175-.125.7 0 1.012.3.788 1.55 2.188 3.675 2.888 1.862.613 6.412.95 11.912-1.175 6.163-2.387 10.975-9.012 9.563-14.55C38.625.263 29.275-1.587 20.438 1.55c-5.263 1.875-10.963 4.8-15.063 8.637C.5 14.738-.275 18.712.05 20.364c1.138 5.887 9.25 9.724 12.5 12.562-.162.087-.312.175-.45.25-1.625.8-7.812 4.038-9.362 7.462-1.75 3.875.275 6.663 1.625 7.038 4.175 1.163 8.45-.925 10.762-4.362 2.3-3.438 2.025-7.9.963-9.938l-.038-.075 1.275-.75a76.735 76.735 0 0 1 2.35-1.325c-.4 1.087-.688 2.375-.837 4.25-.175 2.2.725 5.05 1.912 6.175.525.487 1.15.5 1.538.5 1.375 0 2-1.138 2.687-2.5.85-1.663 1.6-3.588 1.6-3.588s-.937 5.213 1.625 5.213c.938 0 1.875-1.213 2.3-1.838v.013s.025-.038.075-.125c.053-.078.102-.157.15-.238v-.025c.375-.65 1.213-2.137 2.463-4.6 1.612-3.175 3.162-7.15 3.162-7.15s.15.976.613 2.575c.274.95.874 1.988 1.337 3-.375.526-.6.826-.6.826l.012.012c-.3.4-.637.825-.987 1.25-1.275 1.525-2.8 3.263-3 3.763-.237.587-.187 1.025.275 1.375.338.25.938.3 1.575.25 1.15-.075 1.95-.363 2.35-.538a8.139 8.139 0 0 0 2.025-1.062c1.25-.925 2.013-2.238 1.938-3.988-.038-.962-.35-1.912-.738-2.812.113-.163.225-.325.338-.5 1.975-2.888 3.5-6.063 3.5-6.063s.15.975.612 2.575c.237.813.713 1.7 1.138 2.575-1.85 1.513-3.013 3.263-3.413 4.413-.737 2.125-.162 3.087.925 3.312.487.1 1.188-.125 1.712-.35a7.76 7.76 0 0 0 2.163-1.112c1.25-.925 2.45-2.213 2.388-3.95-.038-.8-.25-1.588-.538-2.338 1.575-.65 3.612-1.025 6.2-.712 5.563.65 6.663 4.125 6.45 5.575-.212 1.45-1.375 2.25-1.762 2.5-.388.237-.513.325-.475.5.05.263.225.25.562.2.463-.075 2.925-1.188 3.025-3.862.15-3.438-3.112-7.188-8.9-7.151Zm-42.9 14.463c-1.837 2.012-4.425 2.775-5.525 2.125-1.187-.688-.725-3.65 1.538-5.788 1.375-1.3 3.162-2.5 4.337-3.237.263-.163.663-.4 1.138-.688.075-.05.125-.075.125-.075.087-.05.187-.112.287-.175.838 3.05.038 5.725-1.9 7.837ZM25.613 32.9c-.638 1.563-1.988 5.575-2.8 5.35-.7-.188-1.125-3.225-.138-6.225.5-1.513 1.562-3.313 2.187-4.013 1.013-1.125 2.113-1.5 2.388-1.037.325.6-1.237 4.95-1.637 5.925ZM36.7 38.2c-.275.138-.525.237-.637.163-.088-.05.112-.238.112-.238s1.387-1.487 1.937-2.175c.313-.4.688-.862 1.088-1.387v.15c0 1.8-1.725 3-2.5 3.487Zm8.55-1.95c-.2-.15-.175-.612.5-2.063.263-.575.862-1.537 1.9-2.45.125.375.2.738.187 1.076-.012 2.25-1.612 3.087-2.587 3.437Z"/></g><defs><clipPath><path fill="#fff" d="M0 0h64v48H0z"/></clipPath></defs></symbol>
    <symbol id="typescript" viewBox="0 0 64 64" fill="none"><g clip-path="url(#a)"><path fill="#007ACC" d="M0 32v32h64.002V-.002H0V32Zm51.577-2.55c1.625.406 2.865 1.128 4.003 2.306.59.63 1.463 1.778 1.534 2.052.02.08-2.763 1.95-4.45 2.997-.06.04-.305-.223-.58-.63-.823-1.2-1.686-1.717-3.007-1.808-1.94-.132-3.2.884-3.18 2.58 0 .498.07.792.274 1.2.427.884 1.22 1.412 3.708 2.49 4.582 1.97 6.542 3.27 7.76 5.12 1.36 2.062 1.666 5.354.742 7.802-1.016 2.662-3.535 4.47-7.08 5.07-1.097.193-3.698.163-4.876-.05-2.57-.457-5.008-1.727-6.512-3.393-.59-.65-1.737-2.347-1.666-2.47.03-.04.295-.203.59-.376l2.377-1.37 1.84-1.067.386.57c.538.823 1.717 1.95 2.428 2.326 2.042 1.077 4.846.924 6.227-.315.59-.538.833-1.097.833-1.92 0-.742-.09-1.067-.477-1.625-.498-.71-1.514-1.31-4.4-2.56-3.302-1.422-4.724-2.306-6.024-3.708-.752-.813-1.463-2.113-1.758-3.2-.244-.904-.305-3.17-.112-4.084.68-3.2 3.088-5.415 6.563-6.075 1.128-.213 3.75-.132 4.856.142l.001-.004Zm-15.025 2.67.02 2.62h-8.33v23.67H22.35V34.74h-8.33v-2.57l.07-2.64c.03-.04 5.1-.06 11.246-.05l11.185.03.031 2.61Z"/></g><defs><clipPath><path fill="#fff" d="M0 0h64v64H0z"/></clipPath></defs></symbol>
    <symbol id="git" viewBox="0 0 32 32"><path fill="#f03c2e" d="M31.396 14.575 17.425.604a2.06 2.06 0 0 0-2.914 0l-2.9 2.9 3.68 3.68a2.424 2.424 0 0 1 2.518.587 2.45 2.45 0 0 1 .581 2.533l3.547 3.547a2.445 2.445 0 0 1 2.533.582 2.45 2.45 0 1 1-3.469 3.468 2.456 2.456 0 0 1-.534-2.667l-3.308-3.308v8.705a2.5 2.5 0 0 1 .65.464 2.45 2.45 0 1 1-3.468 3.468 2.45 2.45 0 0 1 0-3.468c.237-.236.5-.415.803-.535v-8.786a2.435 2.435 0 0 1-.803-.535 2.45 2.45 0 0 1-.528-2.681l-3.63-3.628-9.58 9.57a2.06 2.06 0 0 0 0 2.915l13.972 13.97a2.06 2.06 0 0 0 2.914 0L31.396 17.5a2.06 2.06 0 0 0 0-2.915"/></symbol>
    <symbol id="webpack" viewBox="0 0 32 32"><path fill="#8ed6fb" d="M29.54 24.663 16.57 32v-5.713l8.08-4.446zm.888-.803V8.52l-4.744 2.742v9.862zm-27.966.803L15.43 32v-5.713L7.345 21.84zm-.888-.803V8.52l4.744 2.742v9.862zM2.13 7.524 15.43 0v5.522L6.84 10.25zm27.74 0L16.57 0v5.522l8.59 4.723z"/><path fill="#1c78c0" d="M15.43 25.237 7.456 20.85v-8.684l7.974 4.604zm1.14 0 7.975-4.383v-8.69L16.57 16.77zm-.57-8.8zm-8.004-5.275L16 6.763l8.004 4.4L16 15.783z"/></symbol>
</svg>
